<svg width="48" height="48" viewBox="0 0 48 48" fill="none" xmlns="http://www.w3.org/2000/svg">
<path fill-rule="evenodd" clip-rule="evenodd" d="M24 48C37.2548 48 48 37.2548 48 24C48 10.7452 37.2548 0 24 0C10.7452 0 0 10.7452 0 24C0 37.2548 10.7452 48 24 48ZM24 12C24.8284 12 25.5 12.6716 25.5 13.5V22.5H34.5C35.3284 22.5 36 23.1716 36 24C36 24.8284 35.3284 25.5 34.5 25.5H25.5V34.5C25.5 35.3284 24.8284 36 24 36C23.1716 36 22.5 35.3284 22.5 34.5V25.5H13.5C12.6716 25.5 12 24.8284 12 24C12 23.1716 12.6716 22.5 13.5 22.5L22.5 22.5V13.5C22.5 12.6716 23.1716 12 24 12Z" fill="#FF5A60"/>
</svg>
