<svg width="48" height="48" viewBox="0 0 48 48" fill="none" xmlns="http://www.w3.org/2000/svg">
<path fill-rule="evenodd" clip-rule="evenodd" d="M24 48C37.2549 48 48 37.2548 48 24C48 10.7452 37.2549 0 24 0C10.7451 0 0 10.7452 0 24C0 37.2548 10.7451 48 24 48ZM22 14C21.4696 14 20.9608 14.2107 20.5858 14.5858C20.2107 14.9609 20 15.4695 20 16V18H17.0104H16.9917H16C15.4478 18 15 18.4477 15 19C15 19.5523 15.4478 20 16 20H16.0688L16.8695 31.213C16.9235 31.97 17.2621 32.6783 17.8174 33.1954C18.3727 33.7125 19.1033 34 19.8621 34H28.1379C28.8967 34 29.6273 33.7125 30.1826 33.1954C30.7379 32.6783 31.0765 31.97 31.1305 31.213L31.9312 20H32C32.5522 20 33 19.5523 33 19C33 18.4477 32.5522 18 32 18H31.0083H30.9896H28V16C28 15.4695 27.7893 14.9609 27.4142 14.5858C27.0392 14.2107 26.5304 14 26 14H22ZM18.074 20H21H27H29.926L29.1355 31.0708C29.1176 31.3233 29.0046 31.5594 28.8196 31.7318C28.6345 31.9042 28.391 32 28.1381 32H19.8621C19.609 32 19.3655 31.9042 19.1804 31.7318C18.9954 31.5594 18.8824 31.3233 18.8645 31.0708L18.074 20ZM22 16V18H26V16H22ZM23 23C23 22.4477 22.5522 22 22 22C21.4478 22 21 22.4477 21 23V29C21 29.5523 21.4478 30 22 30C22.5522 30 23 29.5523 23 29V23ZM27 23C27 22.4477 26.5522 22 26 22C25.4478 22 25 22.4477 25 23V29C25 29.5523 25.4478 30 26 30C26.5522 30 27 29.5523 27 29V23Z" fill="#FF5A60"/>
</svg>
